<svg width="62" height="61" viewBox="0 0 62 61" fill="none" xmlns="http://www.w3.org/2000/svg">
<rect width="61.4389" height="60.8604" rx="15" fill="#24292F"/>
<path d="M30.7195 19C24.2478 19 19 24.2469 19 30.7195C19 35.8976 22.358 40.2905 27.0146 41.8402C27.6002 41.9487 27.8153 41.586 27.8153 41.2764C27.8153 40.997 27.8044 40.0737 27.7994 39.0945C24.5389 39.8034 23.851 37.7117 23.851 37.7117C23.3179 36.3571 22.5497 35.997 22.5497 35.997C21.4865 35.2696 22.6299 35.2844 22.6299 35.2844C23.8067 35.3672 24.4264 36.4922 24.4264 36.4922C25.4717 38.2839 27.168 37.7659 27.8368 37.4665C27.942 36.7089 28.2457 36.192 28.5809 35.8993C25.9779 35.6029 23.2414 34.598 23.2414 30.1075C23.2414 28.828 23.6992 27.7825 24.449 26.9618C24.3273 26.6666 23.9261 25.4746 24.5625 23.8603C24.5625 23.8603 25.5466 23.5453 27.7862 25.0617C28.7209 24.8019 29.7235 24.6718 30.7195 24.6673C31.7155 24.6718 32.7188 24.8019 33.6554 25.0617C35.8924 23.5453 36.8751 23.8603 36.8751 23.8603C37.513 25.4746 37.1117 26.6666 36.99 26.9618C37.7414 27.7825 38.1961 28.8279 38.1961 30.1075C38.1961 34.6087 35.4545 35.5999 32.8449 35.89C33.2652 36.2537 33.6397 36.9669 33.6397 38.0602C33.6397 39.6283 33.6261 40.8904 33.6261 41.2764C33.6261 41.5883 33.8371 41.9537 34.4312 41.8387C39.0852 40.2872 42.439 35.8959 42.439 30.7195C42.439 24.2469 37.1918 19 30.7195 19Z" fill="white"/>
<path d="M23.3892 35.6942C23.3635 35.7524 23.2717 35.7699 23.1884 35.73C23.1034 35.6918 23.0556 35.6123 23.0831 35.5539C23.1084 35.494 23.2001 35.4772 23.285 35.5175C23.3702 35.5556 23.4187 35.6358 23.3892 35.6942ZM23.9657 36.2086C23.9098 36.2604 23.8005 36.2364 23.7264 36.1545C23.6497 36.0727 23.6354 35.9636 23.6921 35.9109C23.7497 35.8591 23.8557 35.8833 23.9325 35.9651C24.0092 36.0477 24.0241 36.1563 23.9656 36.2087M24.3612 36.8667C24.2893 36.9166 24.1719 36.8698 24.0993 36.7656C24.0276 36.6615 24.0276 36.5365 24.1009 36.4864C24.1737 36.4363 24.2893 36.4813 24.3629 36.5847C24.4345 36.6907 24.4345 36.8157 24.3611 36.8668M25.03 37.6289C24.9657 37.6997 24.829 37.6808 24.7288 37.5841C24.6264 37.4896 24.5978 37.3555 24.6622 37.2846C24.7272 37.2137 24.8648 37.2336 24.9657 37.3295C25.0675 37.4238 25.0985 37.5589 25.0301 37.6289M25.8943 37.8863C25.8661 37.978 25.7343 38.0198 25.6016 37.9808C25.469 37.9406 25.3823 37.8331 25.409 37.7403C25.4366 37.648 25.569 37.6045 25.7027 37.6462C25.835 37.6862 25.922 37.7929 25.8944 37.8863M26.8782 37.9954C26.8815 38.0921 26.7689 38.1723 26.6296 38.174C26.4894 38.177 26.3761 38.0988 26.3746 38.0038C26.3746 37.9062 26.4846 37.8267 26.6247 37.8244C26.764 37.8217 26.8782 37.8994 26.8782 37.9954ZM27.8446 37.9584C27.8613 38.0527 27.7644 38.1495 27.6261 38.1753C27.4901 38.2001 27.3641 38.1419 27.3468 38.0484C27.3298 37.9518 27.4286 37.855 27.5643 37.8299C27.7029 37.8058 27.8269 37.8625 27.8446 37.9584Z" fill="white"/>
</svg>
