<svg width="61" height="61" viewBox="0 0 61 61" fill="none" xmlns="http://www.w3.org/2000/svg">
<rect width="60.999" height="60.999" rx="15" fill="#0A66C2"/>
<path d="M19 20.6475C19 19.7381 19.7613 19 20.6998 19H40.2993C41.2381 19 41.999 19.7381 41.999 20.6475V40.3518C41.999 41.2614 41.2381 41.999 40.2993 41.999H20.6998C19.7614 41.999 19 41.2615 19 40.3521V20.6472V20.6475Z" fill="white"/>
<path d="M25.9892 38.247V27.8927H22.5476V38.247H25.9896H25.9892ZM24.2691 26.4793C25.469 26.4793 26.2161 25.6842 26.2161 24.6906C26.1936 23.6743 25.469 22.9014 24.292 22.9014C23.1141 22.9014 22.3448 23.6743 22.3448 24.6905C22.3448 25.6841 23.0915 26.4792 24.2466 26.4792H24.2689L24.2691 26.4793ZM27.8942 38.247H31.3355V32.4653C31.3355 32.1563 31.358 31.8464 31.4489 31.6257C31.6976 31.0071 32.2638 30.3668 33.2148 30.3668C34.4598 30.3668 34.9581 31.3163 34.9581 32.7083V38.247H38.3993V32.3102C38.3993 29.1299 36.7017 27.65 34.4375 27.65C32.5811 27.65 31.7658 28.6875 31.3129 29.3942H31.3358V27.8931H27.8944C27.9393 28.8644 27.8941 38.2473 27.8941 38.2473L27.8942 38.247Z" fill="#0A66C2"/>
</svg>
